<svg width="267" height="40" viewBox="0 0 267 40" fill="none" xmlns="http://www.w3.org/2000/svg">
<g clip-path="url(#clip0_405_3574)">
<path fill-rule="evenodd" clip-rule="evenodd" d="M8 10C8 8.61929 9.11929 7.5 10.5 7.5H14.25C15.6307 7.5 16.75 8.61929 16.75 10V30C16.75 31.3807 15.6307 32.5 14.25 32.5H10.5C9.11929 32.5 8 31.3807 8 30V10ZM14.25 10H10.5V30H14.25V10Z" fill="#00B37E"/>
<path fill-rule="evenodd" clip-rule="evenodd" d="M24.25 10C24.25 8.61929 25.3693 7.5 26.75 7.5H30.5C31.8807 7.5 33 8.61929 33 10V30C33 31.3807 31.8807 32.5 30.5 32.5H26.75C25.3693 32.5 24.25 31.3807 24.25 30V10ZM30.5 10H26.75V30H30.5V10Z" fill="#00B37E"/>
<path fill-rule="evenodd" clip-rule="evenodd" d="M30.5 12.5C30.5 11.8096 31.0596 11.25 31.75 11.25H35.5C36.163 11.25 36.7989 11.5134 37.2678 11.9822C37.7366 12.4511 38 13.087 38 13.75V26.25C38 26.913 37.7366 27.5489 37.2678 28.0178C36.7989 28.4866 36.163 28.75 35.5 28.75H31.75C31.0596 28.75 30.5 28.1904 30.5 27.5C30.5 26.8096 31.0596 26.25 31.75 26.25H35.5L35.5 13.75L31.75 13.75C31.0596 13.75 30.5 13.1904 30.5 12.5Z" fill="#00B37E"/>
<path fill-rule="evenodd" clip-rule="evenodd" d="M3.73223 11.9822C4.20107 11.5134 4.83696 11.25 5.5 11.25H9.25C9.94036 11.25 10.5 11.8096 10.5 12.5C10.5 13.1904 9.94036 13.75 9.25 13.75L5.5 13.75V26.25H9.25C9.94036 26.25 10.5 26.8096 10.5 27.5C10.5 28.1904 9.94036 28.75 9.25 28.75H5.5C4.83696 28.75 4.20108 28.4866 3.73223 28.0178C3.26339 27.5489 3 26.913 3 26.25V13.75C3 13.087 3.26339 12.4511 3.73223 11.9822Z" fill="#00B37E"/>
<path fill-rule="evenodd" clip-rule="evenodd" d="M14.25 20C14.25 19.3096 14.8096 18.75 15.5 18.75H25.5C26.1904 18.75 26.75 19.3096 26.75 20C26.75 20.6904 26.1904 21.25 25.5 21.25H15.5C14.8096 21.25 14.25 20.6904 14.25 20Z" fill="#00B37E"/>
<path fill-rule="evenodd" clip-rule="evenodd" d="M35.5 20C35.5 19.3096 36.0596 18.75 36.75 18.75H39.25C39.9404 18.75 40.5 19.3096 40.5 20C40.5 20.6904 39.9404 21.25 39.25 21.25H36.75C36.0596 21.25 35.5 20.6904 35.5 20Z" fill="#00B37E"/>
<path fill-rule="evenodd" clip-rule="evenodd" d="M0.5 20C0.5 19.3096 1.05964 18.75 1.75 18.75H4.25C4.94036 18.75 5.5 19.3096 5.5 20C5.5 20.6904 4.94036 21.25 4.25 21.25H1.75C1.05964 21.25 0.5 20.6904 0.5 20Z" fill="#00B37E"/>
</g>
<path d="M54.7188 9.59375H62.1426C63.6647 9.59375 64.9727 9.82161 66.0664 10.2773C67.1693 10.7331 68.0169 11.4076 68.6094 12.3008C69.2018 13.194 69.498 14.2923 69.498 15.5957C69.498 16.6621 69.3158 17.5781 68.9512 18.3438C68.5957 19.1003 68.0898 19.7337 67.4336 20.2441C66.7865 20.7454 66.0254 21.1465 65.1504 21.4473L63.8516 22.1309H57.3984L57.3711 18.9316H62.1699C62.89 18.9316 63.487 18.804 63.9609 18.5488C64.4349 18.2936 64.7904 17.9382 65.0273 17.4824C65.2734 17.0267 65.3965 16.498 65.3965 15.8965C65.3965 15.2585 65.278 14.707 65.041 14.2422C64.804 13.7773 64.444 13.4219 63.9609 13.1758C63.4779 12.9297 62.8717 12.8066 62.1426 12.8066H58.8203V29.5H54.7188V9.59375ZM65.8477 29.5L61.3086 20.627L65.6426 20.5996L70.2363 29.3086V29.5H65.8477ZM83.7305 9.59375V29.5H79.6289V9.59375H83.7305ZM91.6602 18.0977V21.2969H82.6094V18.0977H91.6602ZM92.6172 9.59375V12.8066H82.6094V9.59375H92.6172ZM99.3574 9.59375V29.5H95.2695V9.59375H99.3574ZM111.689 9.59375V29.5H107.602V9.59375H111.689ZM117.814 9.59375V12.8066H101.572V9.59375H117.814ZM134.48 12.998L129.066 29.5H124.705L132.102 9.59375H134.877L134.48 12.998ZM138.979 29.5L133.551 12.998L133.113 9.59375H135.916L143.354 29.5H138.979ZM138.732 22.0898V25.3027H128.219V22.0898H138.732ZM156.492 22.8965H160.58C160.498 24.2363 160.129 25.4258 159.473 26.4648C158.826 27.5039 157.919 28.3151 156.752 28.8984C155.594 29.4818 154.2 29.7734 152.568 29.7734C151.292 29.7734 150.148 29.5547 149.137 29.1172C148.125 28.6706 147.259 28.0326 146.539 27.2031C145.828 26.3737 145.286 25.3711 144.912 24.1953C144.538 23.0195 144.352 21.7025 144.352 20.2441V18.8633C144.352 17.4049 144.543 16.0879 144.926 14.9121C145.318 13.7272 145.874 12.7201 146.594 11.8906C147.323 11.0612 148.193 10.4232 149.205 9.97656C150.217 9.52995 151.347 9.30664 152.596 9.30664C154.255 9.30664 155.654 9.60742 156.793 10.209C157.941 10.8105 158.83 11.64 159.459 12.6973C160.097 13.7546 160.48 14.9577 160.607 16.3066H156.506C156.46 15.5046 156.301 14.8255 156.027 14.2695C155.754 13.7044 155.339 13.2806 154.783 12.998C154.236 12.7064 153.507 12.5605 152.596 12.5605C151.912 12.5605 151.315 12.6882 150.805 12.9434C150.294 13.1986 149.866 13.5859 149.52 14.1055C149.173 14.625 148.913 15.2812 148.74 16.0742C148.576 16.8581 148.494 17.7786 148.494 18.8359V20.2441C148.494 21.2741 148.572 22.181 148.727 22.9648C148.882 23.7396 149.118 24.3958 149.438 24.9336C149.766 25.4622 150.185 25.8633 150.695 26.1367C151.215 26.401 151.839 26.5332 152.568 26.5332C153.425 26.5332 154.132 26.3965 154.688 26.123C155.243 25.8496 155.667 25.444 155.959 24.9062C156.26 24.3685 156.438 23.6986 156.492 22.8965ZM171.367 12.998L165.953 29.5H161.592L168.988 9.59375H171.764L171.367 12.998ZM175.865 29.5L170.438 12.998L170 9.59375H172.803L180.24 29.5H175.865ZM175.619 22.0898V25.3027H165.105V22.0898H175.619ZM188.197 29.5H183.863L183.891 26.3008H188.197C189.273 26.3008 190.18 26.0592 190.918 25.5762C191.656 25.084 192.212 24.3685 192.586 23.4297C192.969 22.4909 193.16 21.3561 193.16 20.0254V19.0547C193.16 18.0339 193.051 17.1361 192.832 16.3613C192.622 15.5866 192.308 14.9349 191.889 14.4062C191.469 13.8776 190.954 13.4811 190.344 13.2168C189.733 12.9434 189.031 12.8066 188.238 12.8066H183.781V9.59375H188.238C189.569 9.59375 190.786 9.82161 191.889 10.2773C193.001 10.724 193.962 11.3665 194.773 12.2051C195.585 13.0436 196.209 14.0462 196.646 15.2129C197.093 16.3704 197.316 17.6602 197.316 19.082V20.0254C197.316 21.4382 197.093 22.7279 196.646 23.8945C196.209 25.0612 195.585 26.0638 194.773 26.9023C193.971 27.7318 193.01 28.3743 191.889 28.8301C190.777 29.2767 189.546 29.5 188.197 29.5ZM186.188 9.59375V29.5H182.086V9.59375H186.188ZM213.654 26.3008V29.5H203.059V26.3008H213.654ZM204.398 9.59375V29.5H200.297V9.59375H204.398ZM212.273 17.7012V20.8184H203.059V17.7012H212.273ZM213.641 9.59375V12.8066H203.059V9.59375H213.641ZM217.92 9.59375H221.393L226.506 24.209L231.619 9.59375H235.092L227.9 29.5H225.111L217.92 9.59375ZM216.047 9.59375H219.506L220.135 23.8398V29.5H216.047V9.59375ZM233.506 9.59375H236.979V29.5H232.877V23.8398L233.506 9.59375ZM244.936 9.59375V29.5H240.848V9.59375H244.936ZM257.117 12.998L251.703 29.5H247.342L254.738 9.59375H257.514L257.117 12.998ZM261.615 29.5L256.188 12.998L255.75 9.59375H258.553L265.99 29.5H261.615ZM261.369 22.0898V25.3027H250.855V22.0898H261.369Z" fill="white"/>
<defs>
<clipPath id="clip0_405_3574">
<rect width="40" height="40" fill="white" transform="translate(0.5)"/>
</clipPath>
</defs>
</svg>
